<svg xmlns="http://www.w3.org/2000/svg" xmlns:xlink="http://www.w3.org/1999/xlink" width="500" zoomAndPan="magnify" viewBox="0 0 375 374.999991" height="500" preserveAspectRatio="xMidYMid meet" version="1.0"><defs><g><g id="id1"/></g><clipPath id="id2"><path d="M 112.5 122.589844 L 262.5 122.589844 L 262.5 252.339844 L 112.5 252.339844 Z M 112.5 122.589844 " clip-rule="nonzero"/></clipPath></defs><rect x="-37.5" width="450" fill="rgb(100%, 100%, 100%)" y="-37.499999" height="449.999989" fill-opacity="1"/><rect x="-37.5" width="450" fill="rgb(0%, 0%, 0%)" y="-37.499999" height="449.999989" fill-opacity="1"/><rect x="-37.5" width="450" fill="rgb(100%, 100%, 100%)" y="-37.499999" height="449.999989" fill-opacity="1"/><rect x="-37.5" width="450" fill="rgb(0%, 0%, 0%)" y="-37.499999" height="449.999989" fill-opacity="1"/><g clip-path="url(#id2)"><path fill="rgb(42.749023%, 51.368713%, 94.898987%)" d="M 222.367188 127.085938 L 257.230469 187.464844 L 222.367188 247.847656 L 152.632812 247.847656 L 117.738281 187.464844 L 152.632812 127.085938 L 222.367188 127.085938 M 224.972656 122.589844 L 150.027344 122.589844 L 112.554688 187.464844 L 150.027344 252.339844 L 224.972656 252.339844 L 262.445312 187.464844 Z M 224.972656 122.589844 " fill-opacity="1" fill-rule="nonzero"/></g><g fill="rgb(42.749023%, 51.368713%, 94.898987%)" fill-opacity="1"><g transform="translate(153.724835, 228.205556)"><g><path d="M 61.6875 -59.34375 C 61.6875 -55.914062 60.984375 -52.71875 59.578125 -49.75 C 57.003906 -44.207031 52.476562 -40.34375 46 -38.15625 C 43.738281 -37.375 41.789062 -36.984375 40.15625 -36.984375 C 35.3125 -36.984375 31.132812 -37.882812 27.625 -39.6875 L 27.625 -40.859375 C 33.320312 -39.609375 38.59375 -40.234375 43.4375 -42.734375 C 47.726562 -44.910156 50.648438 -48.5 52.203125 -53.5 C 52.671875 -55.0625 52.90625 -56.539062 52.90625 -57.9375 C 52.90625 -59.34375 52.90625 -60.203125 52.90625 -60.515625 C 52.75 -65.984375 51.304688 -70.335938 48.578125 -73.578125 C 45.847656 -76.816406 42.023438 -78.4375 37.109375 -78.4375 L 23.640625 -78.4375 L 23.640625 -8.546875 C 23.722656 -6.515625 24.484375 -4.773438 25.921875 -3.328125 C 27.367188 -1.890625 29.109375 -1.171875 31.140625 -1.171875 L 32.65625 -1.171875 L 32.65625 0 L 7.03125 0 L 7.03125 -1.171875 L 8.546875 -1.171875 C 10.578125 -1.171875 12.3125 -1.890625 13.75 -3.328125 C 15.195312 -4.773438 15.957031 -6.515625 16.03125 -8.546875 L 16.03125 -73.984375 C 15.800781 -75.929688 14.984375 -77.546875 13.578125 -78.828125 C 12.171875 -80.117188 10.492188 -80.765625 8.546875 -80.765625 L 7.140625 -80.765625 L 7.03125 -81.9375 L 37.578125 -81.9375 C 45.066406 -81.9375 50.957031 -79.925781 55.25 -75.90625 C 59.539062 -71.894531 61.6875 -66.375 61.6875 -59.34375 Z M 61.6875 -59.34375 "/></g></g></g></svg>