<svg xmlns="http://www.w3.org/2000/svg" xmlns:xlink="http://www.w3.org/1999/xlink" width="500" zoomAndPan="magnify" viewBox="0 0 375 374.999991" height="500" preserveAspectRatio="xMidYMid meet" version="1.0"><defs><g><g id="id1"/></g><clipPath id="id2"><path d="M 94.480469 106.996094 L 280.480469 106.996094 L 280.480469 268.246094 L 94.480469 268.246094 Z M 94.480469 106.996094 " clip-rule="nonzero"/></clipPath></defs><g clip-path="url(#id2)"><path fill="rgb(75.689697%, 67.059326%, 39.608765%)" d="M 230.71875 112.582031 L 273.953125 187.621094 L 230.71875 262.660156 L 144.246094 262.660156 L 100.972656 187.621094 L 144.246094 112.582031 L 230.71875 112.582031 M 233.953125 106.996094 L 141.011719 106.996094 L 94.539062 187.621094 L 141.011719 268.246094 L 233.953125 268.246094 L 280.421875 187.621094 Z M 233.953125 106.996094 " fill-opacity="1" fill-rule="nonzero"/></g><g fill="rgb(75.689697%, 67.059326%, 39.608765%)" fill-opacity="1"><g transform="translate(147.582036, 239.230904)"><g><path d="M 19.234375 -39.953125 L 19.234375 0 L 15.71875 0 L 15.71875 -94.578125 L 44.5625 -94.578125 C 48.582031 -94.492188 52.328125 -93.789062 55.796875 -92.46875 C 59.265625 -91.144531 62.273438 -89.28125 64.828125 -86.875 C 67.378906 -84.476562 69.378906 -81.597656 70.828125 -78.234375 C 72.285156 -74.878906 73.015625 -71.125 73.015625 -66.96875 C 73.015625 -62.8125 72.273438 -59.085938 70.796875 -55.796875 C 69.328125 -52.503906 67.3125 -49.6875 64.75 -47.34375 C 62.195312 -45.007812 59.1875 -43.203125 55.71875 -41.921875 C 52.257812 -40.648438 48.539062 -39.992188 44.5625 -39.953125 Z M 19.234375 -43.453125 L 44.5625 -43.453125 C 47.976562 -43.492188 51.203125 -44.066406 54.234375 -45.171875 C 57.265625 -46.273438 59.90625 -47.832031 62.15625 -49.84375 C 64.414062 -51.863281 66.203125 -54.300781 67.515625 -57.15625 C 68.835938 -60.019531 69.5 -63.25 69.5 -66.84375 C 69.5 -70.476562 68.859375 -73.765625 67.578125 -76.703125 C 66.304688 -79.648438 64.554688 -82.175781 62.328125 -84.28125 C 60.097656 -86.382812 57.457031 -88.019531 54.40625 -89.1875 C 51.351562 -90.351562 48.070312 -90.976562 44.5625 -91.0625 L 19.234375 -91.0625 Z M 19.234375 -43.453125 "/></g></g></g></svg>